<svg xmlns="http://www.w3.org/2000/svg" viewBox="0 0 100 100" enable-background="new 0 0 100 100"><circle fill="#368e36" cx="50" cy="50" r="50"/><path fill="#247c24" d="m54.21 40.31l6.116-6.116-14.09-17.979-17.1 17.1-2.976-7.953-26.12 26.12c.787 26.925 22.846 48.51 49.962 48.51 2.618 0 5.188-.203 7.697-.591l20.417-20.417-17.598-31.471-6.302-7.209"/><path transform="matrix(.9412.3378-.3378.9412 20.354-14.209)" fill="#99c699" d="m18.831 35.29h64.34v32.17h-64.34z"/><path transform="matrix(.9412.3378-.3378.9412 20.354-14.209)" fill="#699369" d="m22.296 39.37h57.41v24.01h-57.41z"/><g fill="#99c699"><circle cx="51" cy="51.37" r="9.363"/><path d="m30.458 44c1.654-4.609 6.551-7.116 11.199-5.884l.014-.039-10.942-3.927-6.326 17.625 10.942 3.927.014-.038c-4.371-2.01-6.556-7.05-4.901-11.664"/><path d="m71.54 58.747c1.654-4.609-.531-9.657-4.901-11.663l.014-.039 10.942 3.927-6.326 17.625-10.941-3.927.014-.038c4.648 1.231 9.544-1.275 11.198-5.885"/></g><path fill="#699369" d="m56.39 52.25l-3.24.588-.552.1-.218-5.417-3.608 4.04-.362-.425-2.13-2.515.22 5.485 6.233 2.24h.001v-.01z"/><circle fill="#ffc25f" cx="33.04" cy="70.842" r="11.407"/><circle fill="#eaa644" cx="33.04" cy="70.842" r="8.939"/><circle fill="#ffc25f" cx="33.04" cy="70.842" r="7.138"/><path fill="#eaa644" d="m38.556 71.36l-3.236.582-.555.098-.215-5.41-3.611 4.04-.363-.43-2.126-2.51.217 5.48 6.233 2.24h.001z"/><circle fill="#ffc25f" cx="70.26" cy="70.73" r="11.407"/><circle fill="#eaa644" cx="70.26" cy="70.73" r="8.939"/><circle fill="#ffc25f" cx="70.26" cy="70.73" r="7.138"/><path fill="#eaa644" d="m74.991 67.841l-2.241 2.409-.39.41-3.409-4.22-.481 5.403-.544-.123-3.205-.744 3.449 4.264 6.34-1.93z"/><circle fill="#ffc25f" cx="53.38" cy="25.16" r="11.407"/><circle fill="#eaa644" cx="53.38" cy="25.16" r="8.939"/><circle fill="#ffc25f" cx="53.38" cy="25.16" r="7.138"/><path fill="#eaa644" d="m57.841 21.873l-2.029 2.59-.342.442-3.767-3.905-.009 5.423-.554-.079-3.26-.462 3.808 3.952 6.143-2.473v-.001z"/></svg>